<?xml version="1.0" encoding="UTF-8" standalone="no"?>
<!-- Created with Inkscape (http://www.inkscape.org/) -->

<svg
   xmlns:dc="http://purl.org/dc/elements/1.1/"
   xmlns:cc="http://creativecommons.org/ns#"
   xmlns:rdf="http://www.w3.org/1999/02/22-rdf-syntax-ns#"
   xmlns:svg="http://www.w3.org/2000/svg"
   xmlns="http://www.w3.org/2000/svg"
   version="1.1"
   width="289"
   height="109"
   viewBox="0 0 289 109"
   id="Layer_1"
   xml:space="preserve"><metadata
     id="metadata3006"><rdf:RDF><cc:Work
         rdf:about=""><dc:format>image/svg+xml</dc:format><dc:type
           rdf:resource="http://purl.org/dc/dcmitype/StillImage" /><dc:title></dc:title></cc:Work></rdf:RDF></metadata><defs
     id="defs3004" /><g
     id="g2986"
     style="fill:#939393;fill-opacity:1"><path
       d="m 120.434,41.477 h 49.389 v 13.332 h -17.371 v 53.934 H 137.806 V 54.809 H 120.433 V 41.477 z"
       id="path2988"
       style="fill:#939393;fill-opacity:1" /></g><g
     id="g2990"
     style="fill:#939393;fill-opacity:1"><path
       d="m 226.131,101.977 c -0.574,1.348 -1.363,2.524 -2.373,3.534 -1.012,1.011 -2.189,1.804 -3.535,2.374 -1.349,0.573 -2.795,0.857 -4.344,0.857 h -24.847 c -1.55,0 -2.997,-0.284 -4.343,-0.857 -1.348,-0.57 -2.525,-1.363 -3.535,-2.374 -1.01,-1.01 -1.803,-2.187 -2.373,-3.534 -0.573,-1.347 -0.857,-2.794 -0.857,-4.344 V 52.588 c 0,-1.548 0.284,-2.996 0.857,-4.343 0.57,-1.346 1.363,-2.525 2.373,-3.535 1.01,-1.01 2.188,-1.8 3.535,-2.374 1.346,-0.571 2.793,-0.858 4.343,-0.858 h 24.847 c 1.549,0 2.995,0.287 4.344,0.858 1.346,0.573 2.523,1.364 3.535,2.374 1.01,1.01 1.799,2.189 2.373,3.535 0.57,1.348 0.857,2.795 0.857,4.343 v 45.045 c 0.001,1.55 -0.286,2.997 -0.857,4.344 z M 211.333,54.809 h -15.756 c -0.674,0 -1.011,0.338 -1.011,1.01 v 38.582 c 0,0.674 0.337,1.01 1.011,1.01 h 15.756 c 0.673,0 1.011,-0.336 1.011,-1.01 V 55.819 c 0,-0.672 -0.338,-1.01 -1.011,-1.01 z"
       id="path2992"
       style="fill:#939393;fill-opacity:1" /></g><g
     id="g2994"
     style="fill:#939393;fill-opacity:1"><path
       d="m 261.834,61.576 10.707,-20.099 h 15.352 l -17.775,33.129 18.281,34.137 H 273.045 L 261.834,87.635 250.623,108.743 H 235.271 L 253.552,74.606 235.777,41.477 h 15.352 l 10.705,20.099 z"
       id="path2996"
       style="fill:#939393;fill-opacity:1" /></g><g
     id="g2998"
     style="fill:#939393;fill-opacity:1"><path
       d="m 71.574,41.851 c 0,-4.685 0.074,-10.553 -0.033,-15.237 C 71.494,24.596 71.273,22.538 70.795,20.58 67.374,6.581 53.823,-2.125 39.594,0.45 26.998,2.729 17.621,13.968 17.621,26.786 v 13.865 1.17 c -0.475,0 -0.794,-10e-4 -1.116,0 H 5.023 C 2.25,41.821 0,44.07 0,46.844 v 56.875 c 0,2.773 2.25,5.023 5.023,5.023 h 79.451 c 2.775,0 5.024,-2.25 5.024,-5.023 V 46.844 c 0,-2.774 -2.249,-5.023 -5.024,-5.023 l -12.9,0.03 z M 52.107,95.118 H 37.332 c -2.322,0 -4.203,-1.914 -4.203,-4.274 0,-0.063 0.007,-0.127 0.009,-0.19 -0.005,0 -0.006,-1.021 -0.008,-2.041 -0.001,-1.129 0.511,-4.289 2.061,-6.574 1.641,-2.418 3.855,-3.99 6.257,-4.697 -3.166,-1.291 -5.396,-4.398 -5.396,-8.025 0,-4.789 3.88,-8.668 8.667,-8.668 4.789,0 8.667,3.879 8.667,8.668 0,3.719 -2.344,6.891 -5.637,8.12 2.332,0.753 4.537,2.313 6.273,4.707 1.621,2.235 2.285,5.343 2.285,6.47 v 2.043 c -0.006,0.062 0,0.125 0,0.189 10e-4,2.358 -1.88,4.272 -4.2,4.272 m 9.672,-62.014 c -1.562,4.611 -4.52,8.305 -7.61,11.912 -2.386,2.783 -5.19,5.125 -8.176,7.247 -0.144,0.103 -0.298,0.188 -0.685,0.427 1.781,-3.076 3.217,-5.998 3.633,-9.404 -4.234,1.002 -8.227,0.564 -12.093,-1.14 -6.862,-3.023 -10.963,-9.618 -10.263,-17.063 0.573,-6.127 3.94,-10.543 9.321,-13.395 8.667,-4.593 19.734,-1.655 24.689,6.516 2.887,4.758 2.932,9.741 1.184,14.9"
       id="path3000"
       style="fill:#939393;fill-opacity:1" /></g></svg>